<?xml version="1.0" encoding="utf-8" standalone="no"?>
<!DOCTYPE svg PUBLIC "-//W3C//DTD SVG 1.1//EN"
  "http://www.w3.org/Graphics/SVG/1.1/DTD/svg11.dtd">
<svg xmlns:xlink="http://www.w3.org/1999/xlink" width="526.304625pt" height="423.718437pt" viewBox="0 0 526.304625 423.718437" xmlns="http://www.w3.org/2000/svg" version="1.1">
 <metadata>
  <rdf:RDF xmlns:dc="http://purl.org/dc/elements/1.1/" xmlns:cc="http://creativecommons.org/ns#" xmlns:rdf="http://www.w3.org/1999/02/22-rdf-syntax-ns#">
   <cc:Work>
    <dc:type rdf:resource="http://purl.org/dc/dcmitype/StillImage"/>
    <dc:date>2024-06-24T22:00:41.947209</dc:date>
    <dc:format>image/svg+xml</dc:format>
    <dc:creator>
     <cc:Agent>
      <dc:title>Matplotlib v3.9.0, https://matplotlib.org/</dc:title>
     </cc:Agent>
    </dc:creator>
   </cc:Work>
  </rdf:RDF>
 </metadata>
 <defs>
  <style type="text/css">*{stroke-linejoin: round; stroke-linecap: butt}</style>
 </defs>
 <g id="figure_1">
  <g id="patch_1">
   <path d="M -0 423.718437 
L 526.304625 423.718437 
L 526.304625 0 
L -0 0 
z
" style="fill: #ffffff"/>
  </g>
  <g id="axes_1">
   <g id="patch_2">
    <path d="M 46.965625 188.082187 
L 224.980625 188.082187 
L 224.980625 20.842187 
L 46.965625 20.842187 
z
" style="fill: #ffffff"/>
   </g>
   <g id="patch_3">
    <path d="M 55.866375 188.082187 
L 60.952518 188.082187 
L 60.952518 69.323624 
L 55.866375 69.323624 
z
" clip-path="url(#pec67f2d820)" style="fill: #3274a1"/>
   </g>
   <g id="patch_4">
    <path d="M 144.873875 188.082187 
L 149.960018 188.082187 
L 149.960018 140.578762 
L 144.873875 140.578762 
z
" clip-path="url(#pec67f2d820)" style="fill: #3274a1"/>
   </g>
   <g id="patch_5">
    <path d="M 60.952518 188.082187 
L 66.038661 188.082187 
L 66.038661 69.323624 
L 60.952518 69.323624 
z
" clip-path="url(#pec67f2d820)" style="fill: #e1812c"/>
   </g>
   <g id="patch_6">
    <path d="M 149.960018 188.082187 
L 155.046161 188.082187 
L 155.046161 140.578762 
L 149.960018 140.578762 
z
" clip-path="url(#pec67f2d820)" style="fill: #e1812c"/>
   </g>
   <g id="patch_7">
    <path d="M 66.038661 188.082187 
L 71.124804 188.082187 
L 71.124804 69.323624 
L 66.038661 69.323624 
z
" clip-path="url(#pec67f2d820)" style="fill: #3a923a"/>
   </g>
   <g id="patch_8">
    <path d="M 155.046161 188.082187 
L 160.132304 188.082187 
L 160.132304 140.578762 
L 155.046161 140.578762 
z
" clip-path="url(#pec67f2d820)" style="fill: #3a923a"/>
   </g>
   <g id="patch_9">
    <path d="M 71.124804 188.082187 
L 76.210946 188.082187 
L 76.210946 67.926465 
L 71.124804 67.926465 
z
" clip-path="url(#pec67f2d820)" style="fill: #c03d3e"/>
   </g>
   <g id="patch_10">
    <path d="M 160.132304 188.082187 
L 165.218446 188.082187 
L 165.218446 141.975922 
L 160.132304 141.975922 
z
" clip-path="url(#pec67f2d820)" style="fill: #c03d3e"/>
   </g>
   <g id="patch_11">
    <path d="M 76.210946 188.082187 
L 81.297089 188.082187 
L 81.297089 100.061135 
L 76.210946 100.061135 
z
" clip-path="url(#pec67f2d820)" style="fill: #9372b2"/>
   </g>
   <g id="patch_12">
    <path d="M 165.218446 188.082187 
L 170.304589 188.082187 
L 170.304589 141.975922 
L 165.218446 141.975922 
z
" clip-path="url(#pec67f2d820)" style="fill: #9372b2"/>
   </g>
   <g id="patch_13">
    <path d="M 81.297089 188.082187 
L 86.383232 188.082187 
L 86.383232 45.571912 
L 81.297089 45.571912 
z
" clip-path="url(#pec67f2d820)" style="fill: #845b53"/>
   </g>
   <g id="patch_14">
    <path d="M 170.304589 188.082187 
L 175.390732 188.082187 
L 175.390732 164.330475 
L 170.304589 164.330475 
z
" clip-path="url(#pec67f2d820)" style="fill: #845b53"/>
   </g>
   <g id="patch_15">
    <path d="M 86.383232 188.082187 
L 91.469375 188.082187 
L 91.469375 45.571912 
L 86.383232 45.571912 
z
" clip-path="url(#pec67f2d820)" style="fill: #d684bd"/>
   </g>
   <g id="patch_16">
    <path d="M 175.390732 188.082187 
L 180.476875 188.082187 
L 180.476875 164.330475 
L 175.390732 164.330475 
z
" clip-path="url(#pec67f2d820)" style="fill: #d684bd"/>
   </g>
   <g id="patch_17">
    <path d="M 91.469375 188.082187 
L 91.469375 188.082187 
L 91.469375 188.082187 
L 91.469375 188.082187 
z
" clip-path="url(#pec67f2d820)" style="fill: #3274a1"/>
   </g>
   <g id="patch_18">
    <path d="M 91.469375 188.082187 
L 91.469375 188.082187 
L 91.469375 188.082187 
L 91.469375 188.082187 
z
" clip-path="url(#pec67f2d820)" style="fill: #e1812c"/>
   </g>
   <g id="patch_19">
    <path d="M 91.469375 188.082187 
L 91.469375 188.082187 
L 91.469375 188.082187 
L 91.469375 188.082187 
z
" clip-path="url(#pec67f2d820)" style="fill: #3a923a"/>
   </g>
   <g id="patch_20">
    <path d="M 91.469375 188.082187 
L 91.469375 188.082187 
L 91.469375 188.082187 
L 91.469375 188.082187 
z
" clip-path="url(#pec67f2d820)" style="fill: #c03d3e"/>
   </g>
   <g id="patch_21">
    <path d="M 91.469375 188.082187 
L 91.469375 188.082187 
L 91.469375 188.082187 
L 91.469375 188.082187 
z
" clip-path="url(#pec67f2d820)" style="fill: #9372b2"/>
   </g>
   <g id="patch_22">
    <path d="M 91.469375 188.082187 
L 91.469375 188.082187 
L 91.469375 188.082187 
L 91.469375 188.082187 
z
" clip-path="url(#pec67f2d820)" style="fill: #845b53"/>
   </g>
   <g id="patch_23">
    <path d="M 91.469375 188.082187 
L 91.469375 188.082187 
L 91.469375 188.082187 
L 91.469375 188.082187 
z
" clip-path="url(#pec67f2d820)" style="fill: #d684bd"/>
   </g>
   <g id="patch_24">
    <path d="M 91.469375 188.082187 
L 91.469375 188.082187 
L 91.469375 188.082187 
L 91.469375 188.082187 
z
" clip-path="url(#pec67f2d820)" style="fill: #7f7f7f"/>
   </g>
   <g id="patch_25">
    <path d="M 91.469375 188.082187 
L 91.469375 188.082187 
L 91.469375 188.082187 
L 91.469375 188.082187 
z
" clip-path="url(#pec67f2d820)" style="fill: #a9aa35"/>
   </g>
   <g id="patch_26">
    <path d="M 91.469375 188.082187 
L 91.469375 188.082187 
L 91.469375 188.082187 
L 91.469375 188.082187 
z
" clip-path="url(#pec67f2d820)" style="fill: #2eabb8"/>
   </g>
   <g id="patch_27">
    <path d="M 91.469375 188.082187 
L 91.469375 188.082187 
L 91.469375 188.082187 
L 91.469375 188.082187 
z
" clip-path="url(#pec67f2d820)" style="fill: #3274a1"/>
   </g>
   <g id="patch_28">
    <path d="M 91.469375 188.082187 
L 91.469375 188.082187 
L 91.469375 188.082187 
L 91.469375 188.082187 
z
" clip-path="url(#pec67f2d820)" style="fill: #e1812c"/>
   </g>
   <g id="patch_29">
    <path d="M 91.469375 188.082187 
L 91.469375 188.082187 
L 91.469375 188.082187 
L 91.469375 188.082187 
z
" clip-path="url(#pec67f2d820)" style="fill: #3a923a"/>
   </g>
   <g id="patch_30">
    <path d="M 91.469375 188.082187 
L 91.469375 188.082187 
L 91.469375 188.082187 
L 91.469375 188.082187 
z
" clip-path="url(#pec67f2d820)" style="fill: #c03d3e"/>
   </g>
   <g id="matplotlib.axis_1">
    <g id="xtick_1">
     <g id="line2d_1">
      <defs>
       <path id="m1e086684f9" d="M 0 0 
L 0 3.5 
" style="stroke: #000000; stroke-width: 0.8"/>
      </defs>
      <g>
       <use xlink:href="#m1e086684f9" x="91.469375" y="188.082187" style="stroke: #000000; stroke-width: 0.8"/>
      </g>
     </g>
    </g>
    <g id="xtick_2">
     <g id="line2d_2">
      <g>
       <use xlink:href="#m1e086684f9" x="180.476875" y="188.082187" style="stroke: #000000; stroke-width: 0.8"/>
      </g>
     </g>
    </g>
   </g>
   <g id="matplotlib.axis_2">
    <g id="ytick_1">
     <g id="line2d_3">
      <defs>
       <path id="ma63835e2fa" d="M 0 0 
L -3.5 0 
" style="stroke: #000000; stroke-width: 0.8"/>
      </defs>
      <g>
       <use xlink:href="#ma63835e2fa" x="46.965625" y="188.082187" style="stroke: #000000; stroke-width: 0.8"/>
      </g>
     </g>
     <g id="text_1">
      <!-- 0 -->
      <g transform="translate(33.603125 191.881406) scale(0.1 -0.1)">
       <defs>
        <path id="DejaVuSans-30" d="M 2034 4250 
Q 1547 4250 1301 3770 
Q 1056 3291 1056 2328 
Q 1056 1369 1301 889 
Q 1547 409 2034 409 
Q 2525 409 2770 889 
Q 3016 1369 3016 2328 
Q 3016 3291 2770 3770 
Q 2525 4250 2034 4250 
z
M 2034 4750 
Q 2819 4750 3233 4129 
Q 3647 3509 3647 2328 
Q 3647 1150 3233 529 
Q 2819 -91 2034 -91 
Q 1250 -91 836 529 
Q 422 1150 422 2328 
Q 422 3509 836 4129 
Q 1250 4750 2034 4750 
z
" transform="scale(0.015625)"/>
       </defs>
       <use xlink:href="#DejaVuSans-30"/>
      </g>
     </g>
    </g>
    <g id="ytick_2">
     <g id="line2d_4">
      <g>
       <use xlink:href="#ma63835e2fa" x="46.965625" y="160.138996" style="stroke: #000000; stroke-width: 0.8"/>
      </g>
     </g>
     <g id="text_2">
      <!-- 20 -->
      <g transform="translate(27.240625 163.938215) scale(0.1 -0.1)">
       <defs>
        <path id="DejaVuSans-32" d="M 1228 531 
L 3431 531 
L 3431 0 
L 469 0 
L 469 531 
Q 828 903 1448 1529 
Q 2069 2156 2228 2338 
Q 2531 2678 2651 2914 
Q 2772 3150 2772 3378 
Q 2772 3750 2511 3984 
Q 2250 4219 1831 4219 
Q 1534 4219 1204 4116 
Q 875 4013 500 3803 
L 500 4441 
Q 881 4594 1212 4672 
Q 1544 4750 1819 4750 
Q 2544 4750 2975 4387 
Q 3406 4025 3406 3419 
Q 3406 3131 3298 2873 
Q 3191 2616 2906 2266 
Q 2828 2175 2409 1742 
Q 1991 1309 1228 531 
z
" transform="scale(0.015625)"/>
       </defs>
       <use xlink:href="#DejaVuSans-32"/>
       <use xlink:href="#DejaVuSans-30" x="63.623047"/>
      </g>
     </g>
    </g>
    <g id="ytick_3">
     <g id="line2d_5">
      <g>
       <use xlink:href="#ma63835e2fa" x="46.965625" y="132.195805" style="stroke: #000000; stroke-width: 0.8"/>
      </g>
     </g>
     <g id="text_3">
      <!-- 40 -->
      <g transform="translate(27.240625 135.995024) scale(0.1 -0.1)">
       <defs>
        <path id="DejaVuSans-34" d="M 2419 4116 
L 825 1625 
L 2419 1625 
L 2419 4116 
z
M 2253 4666 
L 3047 4666 
L 3047 1625 
L 3713 1625 
L 3713 1100 
L 3047 1100 
L 3047 0 
L 2419 0 
L 2419 1100 
L 313 1100 
L 313 1709 
L 2253 4666 
z
" transform="scale(0.015625)"/>
       </defs>
       <use xlink:href="#DejaVuSans-34"/>
       <use xlink:href="#DejaVuSans-30" x="63.623047"/>
      </g>
     </g>
    </g>
    <g id="ytick_4">
     <g id="line2d_6">
      <g>
       <use xlink:href="#ma63835e2fa" x="46.965625" y="104.252614" style="stroke: #000000; stroke-width: 0.8"/>
      </g>
     </g>
     <g id="text_4">
      <!-- 60 -->
      <g transform="translate(27.240625 108.051832) scale(0.1 -0.1)">
       <defs>
        <path id="DejaVuSans-36" d="M 2113 2584 
Q 1688 2584 1439 2293 
Q 1191 2003 1191 1497 
Q 1191 994 1439 701 
Q 1688 409 2113 409 
Q 2538 409 2786 701 
Q 3034 994 3034 1497 
Q 3034 2003 2786 2293 
Q 2538 2584 2113 2584 
z
M 3366 4563 
L 3366 3988 
Q 3128 4100 2886 4159 
Q 2644 4219 2406 4219 
Q 1781 4219 1451 3797 
Q 1122 3375 1075 2522 
Q 1259 2794 1537 2939 
Q 1816 3084 2150 3084 
Q 2853 3084 3261 2657 
Q 3669 2231 3669 1497 
Q 3669 778 3244 343 
Q 2819 -91 2113 -91 
Q 1303 -91 875 529 
Q 447 1150 447 2328 
Q 447 3434 972 4092 
Q 1497 4750 2381 4750 
Q 2619 4750 2861 4703 
Q 3103 4656 3366 4563 
z
" transform="scale(0.015625)"/>
       </defs>
       <use xlink:href="#DejaVuSans-36"/>
       <use xlink:href="#DejaVuSans-30" x="63.623047"/>
      </g>
     </g>
    </g>
    <g id="ytick_5">
     <g id="line2d_7">
      <g>
       <use xlink:href="#ma63835e2fa" x="46.965625" y="76.309422" style="stroke: #000000; stroke-width: 0.8"/>
      </g>
     </g>
     <g id="text_5">
      <!-- 80 -->
      <g transform="translate(27.240625 80.108641) scale(0.1 -0.1)">
       <defs>
        <path id="DejaVuSans-38" d="M 2034 2216 
Q 1584 2216 1326 1975 
Q 1069 1734 1069 1313 
Q 1069 891 1326 650 
Q 1584 409 2034 409 
Q 2484 409 2743 651 
Q 3003 894 3003 1313 
Q 3003 1734 2745 1975 
Q 2488 2216 2034 2216 
z
M 1403 2484 
Q 997 2584 770 2862 
Q 544 3141 544 3541 
Q 544 4100 942 4425 
Q 1341 4750 2034 4750 
Q 2731 4750 3128 4425 
Q 3525 4100 3525 3541 
Q 3525 3141 3298 2862 
Q 3072 2584 2669 2484 
Q 3125 2378 3379 2068 
Q 3634 1759 3634 1313 
Q 3634 634 3220 271 
Q 2806 -91 2034 -91 
Q 1263 -91 848 271 
Q 434 634 434 1313 
Q 434 1759 690 2068 
Q 947 2378 1403 2484 
z
M 1172 3481 
Q 1172 3119 1398 2916 
Q 1625 2713 2034 2713 
Q 2441 2713 2670 2916 
Q 2900 3119 2900 3481 
Q 2900 3844 2670 4047 
Q 2441 4250 2034 4250 
Q 1625 4250 1398 4047 
Q 1172 3844 1172 3481 
z
" transform="scale(0.015625)"/>
       </defs>
       <use xlink:href="#DejaVuSans-38"/>
       <use xlink:href="#DejaVuSans-30" x="63.623047"/>
      </g>
     </g>
    </g>
    <g id="ytick_6">
     <g id="line2d_8">
      <g>
       <use xlink:href="#ma63835e2fa" x="46.965625" y="48.366231" style="stroke: #000000; stroke-width: 0.8"/>
      </g>
     </g>
     <g id="text_6">
      <!-- 100 -->
      <g transform="translate(20.878125 52.16545) scale(0.1 -0.1)">
       <defs>
        <path id="DejaVuSans-31" d="M 794 531 
L 1825 531 
L 1825 4091 
L 703 3866 
L 703 4441 
L 1819 4666 
L 2450 4666 
L 2450 531 
L 3481 531 
L 3481 0 
L 794 0 
L 794 531 
z
" transform="scale(0.015625)"/>
       </defs>
       <use xlink:href="#DejaVuSans-31"/>
       <use xlink:href="#DejaVuSans-30" x="63.623047"/>
       <use xlink:href="#DejaVuSans-30" x="127.246094"/>
      </g>
     </g>
    </g>
    <g id="text_7">
     <!-- count -->
     <g transform="translate(14.798438 118.568437) rotate(-90) scale(0.1 -0.1)">
      <defs>
       <path id="DejaVuSans-63" d="M 3122 3366 
L 3122 2828 
Q 2878 2963 2633 3030 
Q 2388 3097 2138 3097 
Q 1578 3097 1268 2742 
Q 959 2388 959 1747 
Q 959 1106 1268 751 
Q 1578 397 2138 397 
Q 2388 397 2633 464 
Q 2878 531 3122 666 
L 3122 134 
Q 2881 22 2623 -34 
Q 2366 -91 2075 -91 
Q 1284 -91 818 406 
Q 353 903 353 1747 
Q 353 2603 823 3093 
Q 1294 3584 2113 3584 
Q 2378 3584 2631 3529 
Q 2884 3475 3122 3366 
z
" transform="scale(0.015625)"/>
       <path id="DejaVuSans-6f" d="M 1959 3097 
Q 1497 3097 1228 2736 
Q 959 2375 959 1747 
Q 959 1119 1226 758 
Q 1494 397 1959 397 
Q 2419 397 2687 759 
Q 2956 1122 2956 1747 
Q 2956 2369 2687 2733 
Q 2419 3097 1959 3097 
z
M 1959 3584 
Q 2709 3584 3137 3096 
Q 3566 2609 3566 1747 
Q 3566 888 3137 398 
Q 2709 -91 1959 -91 
Q 1206 -91 779 398 
Q 353 888 353 1747 
Q 353 2609 779 3096 
Q 1206 3584 1959 3584 
z
" transform="scale(0.015625)"/>
       <path id="DejaVuSans-75" d="M 544 1381 
L 544 3500 
L 1119 3500 
L 1119 1403 
Q 1119 906 1312 657 
Q 1506 409 1894 409 
Q 2359 409 2629 706 
Q 2900 1003 2900 1516 
L 2900 3500 
L 3475 3500 
L 3475 0 
L 2900 0 
L 2900 538 
Q 2691 219 2414 64 
Q 2138 -91 1772 -91 
Q 1169 -91 856 284 
Q 544 659 544 1381 
z
M 1991 3584 
L 1991 3584 
z
" transform="scale(0.015625)"/>
       <path id="DejaVuSans-6e" d="M 3513 2113 
L 3513 0 
L 2938 0 
L 2938 2094 
Q 2938 2591 2744 2837 
Q 2550 3084 2163 3084 
Q 1697 3084 1428 2787 
Q 1159 2491 1159 1978 
L 1159 0 
L 581 0 
L 581 3500 
L 1159 3500 
L 1159 2956 
Q 1366 3272 1645 3428 
Q 1925 3584 2291 3584 
Q 2894 3584 3203 3211 
Q 3513 2838 3513 2113 
z
" transform="scale(0.015625)"/>
       <path id="DejaVuSans-74" d="M 1172 4494 
L 1172 3500 
L 2356 3500 
L 2356 3053 
L 1172 3053 
L 1172 1153 
Q 1172 725 1289 603 
Q 1406 481 1766 481 
L 2356 481 
L 2356 0 
L 1766 0 
Q 1100 0 847 248 
Q 594 497 594 1153 
L 594 3053 
L 172 3053 
L 172 3500 
L 594 3500 
L 594 4494 
L 1172 4494 
z
" transform="scale(0.015625)"/>
      </defs>
      <use xlink:href="#DejaVuSans-63"/>
      <use xlink:href="#DejaVuSans-6f" x="54.980469"/>
      <use xlink:href="#DejaVuSans-75" x="116.162109"/>
      <use xlink:href="#DejaVuSans-6e" x="179.541016"/>
      <use xlink:href="#DejaVuSans-74" x="242.919922"/>
     </g>
    </g>
   </g>
   <g id="patch_31">
    <path d="M 46.965625 188.082187 
L 46.965625 20.842187 
" style="fill: none; stroke: #000000; stroke-width: 0.8; stroke-linejoin: miter; stroke-linecap: square"/>
   </g>
   <g id="patch_32">
    <path d="M 46.965625 188.082187 
L 224.980625 188.082187 
" style="fill: none; stroke: #000000; stroke-width: 0.8; stroke-linejoin: miter; stroke-linecap: square"/>
   </g>
   <g id="text_8">
    <!-- score = rand_sc | reverse = False -->
    <g transform="translate(52.279375 14.842187) scale(0.1 -0.1)">
     <defs>
      <path id="DejaVuSans-73" d="M 2834 3397 
L 2834 2853 
Q 2591 2978 2328 3040 
Q 2066 3103 1784 3103 
Q 1356 3103 1142 2972 
Q 928 2841 928 2578 
Q 928 2378 1081 2264 
Q 1234 2150 1697 2047 
L 1894 2003 
Q 2506 1872 2764 1633 
Q 3022 1394 3022 966 
Q 3022 478 2636 193 
Q 2250 -91 1575 -91 
Q 1294 -91 989 -36 
Q 684 19 347 128 
L 347 722 
Q 666 556 975 473 
Q 1284 391 1588 391 
Q 1994 391 2212 530 
Q 2431 669 2431 922 
Q 2431 1156 2273 1281 
Q 2116 1406 1581 1522 
L 1381 1569 
Q 847 1681 609 1914 
Q 372 2147 372 2553 
Q 372 3047 722 3315 
Q 1072 3584 1716 3584 
Q 2034 3584 2315 3537 
Q 2597 3491 2834 3397 
z
" transform="scale(0.015625)"/>
      <path id="DejaVuSans-72" d="M 2631 2963 
Q 2534 3019 2420 3045 
Q 2306 3072 2169 3072 
Q 1681 3072 1420 2755 
Q 1159 2438 1159 1844 
L 1159 0 
L 581 0 
L 581 3500 
L 1159 3500 
L 1159 2956 
Q 1341 3275 1631 3429 
Q 1922 3584 2338 3584 
Q 2397 3584 2469 3576 
Q 2541 3569 2628 3553 
L 2631 2963 
z
" transform="scale(0.015625)"/>
      <path id="DejaVuSans-65" d="M 3597 1894 
L 3597 1613 
L 953 1613 
Q 991 1019 1311 708 
Q 1631 397 2203 397 
Q 2534 397 2845 478 
Q 3156 559 3463 722 
L 3463 178 
Q 3153 47 2828 -22 
Q 2503 -91 2169 -91 
Q 1331 -91 842 396 
Q 353 884 353 1716 
Q 353 2575 817 3079 
Q 1281 3584 2069 3584 
Q 2775 3584 3186 3129 
Q 3597 2675 3597 1894 
z
M 3022 2063 
Q 3016 2534 2758 2815 
Q 2500 3097 2075 3097 
Q 1594 3097 1305 2825 
Q 1016 2553 972 2059 
L 3022 2063 
z
" transform="scale(0.015625)"/>
      <path id="DejaVuSans-20" transform="scale(0.015625)"/>
      <path id="DejaVuSans-3d" d="M 678 2906 
L 4684 2906 
L 4684 2381 
L 678 2381 
L 678 2906 
z
M 678 1631 
L 4684 1631 
L 4684 1100 
L 678 1100 
L 678 1631 
z
" transform="scale(0.015625)"/>
      <path id="DejaVuSans-61" d="M 2194 1759 
Q 1497 1759 1228 1600 
Q 959 1441 959 1056 
Q 959 750 1161 570 
Q 1363 391 1709 391 
Q 2188 391 2477 730 
Q 2766 1069 2766 1631 
L 2766 1759 
L 2194 1759 
z
M 3341 1997 
L 3341 0 
L 2766 0 
L 2766 531 
Q 2569 213 2275 61 
Q 1981 -91 1556 -91 
Q 1019 -91 701 211 
Q 384 513 384 1019 
Q 384 1609 779 1909 
Q 1175 2209 1959 2209 
L 2766 2209 
L 2766 2266 
Q 2766 2663 2505 2880 
Q 2244 3097 1772 3097 
Q 1472 3097 1187 3025 
Q 903 2953 641 2809 
L 641 3341 
Q 956 3463 1253 3523 
Q 1550 3584 1831 3584 
Q 2591 3584 2966 3190 
Q 3341 2797 3341 1997 
z
" transform="scale(0.015625)"/>
      <path id="DejaVuSans-64" d="M 2906 2969 
L 2906 4863 
L 3481 4863 
L 3481 0 
L 2906 0 
L 2906 525 
Q 2725 213 2448 61 
Q 2172 -91 1784 -91 
Q 1150 -91 751 415 
Q 353 922 353 1747 
Q 353 2572 751 3078 
Q 1150 3584 1784 3584 
Q 2172 3584 2448 3432 
Q 2725 3281 2906 2969 
z
M 947 1747 
Q 947 1113 1208 752 
Q 1469 391 1925 391 
Q 2381 391 2643 752 
Q 2906 1113 2906 1747 
Q 2906 2381 2643 2742 
Q 2381 3103 1925 3103 
Q 1469 3103 1208 2742 
Q 947 2381 947 1747 
z
" transform="scale(0.015625)"/>
      <path id="DejaVuSans-5f" d="M 3263 -1063 
L 3263 -1509 
L -63 -1509 
L -63 -1063 
L 3263 -1063 
z
" transform="scale(0.015625)"/>
      <path id="DejaVuSans-7c" d="M 1344 4891 
L 1344 -1509 
L 813 -1509 
L 813 4891 
L 1344 4891 
z
" transform="scale(0.015625)"/>
      <path id="DejaVuSans-76" d="M 191 3500 
L 800 3500 
L 1894 563 
L 2988 3500 
L 3597 3500 
L 2284 0 
L 1503 0 
L 191 3500 
z
" transform="scale(0.015625)"/>
      <path id="DejaVuSans-46" d="M 628 4666 
L 3309 4666 
L 3309 4134 
L 1259 4134 
L 1259 2759 
L 3109 2759 
L 3109 2228 
L 1259 2228 
L 1259 0 
L 628 0 
L 628 4666 
z
" transform="scale(0.015625)"/>
      <path id="DejaVuSans-6c" d="M 603 4863 
L 1178 4863 
L 1178 0 
L 603 0 
L 603 4863 
z
" transform="scale(0.015625)"/>
     </defs>
     <use xlink:href="#DejaVuSans-73"/>
     <use xlink:href="#DejaVuSans-63" x="52.099609"/>
     <use xlink:href="#DejaVuSans-6f" x="107.080078"/>
     <use xlink:href="#DejaVuSans-72" x="168.261719"/>
     <use xlink:href="#DejaVuSans-65" x="207.125"/>
     <use xlink:href="#DejaVuSans-20" x="268.648438"/>
     <use xlink:href="#DejaVuSans-3d" x="300.435547"/>
     <use xlink:href="#DejaVuSans-20" x="384.224609"/>
     <use xlink:href="#DejaVuSans-72" x="416.011719"/>
     <use xlink:href="#DejaVuSans-61" x="457.125"/>
     <use xlink:href="#DejaVuSans-6e" x="518.404297"/>
     <use xlink:href="#DejaVuSans-64" x="581.783203"/>
     <use xlink:href="#DejaVuSans-5f" x="645.259766"/>
     <use xlink:href="#DejaVuSans-73" x="695.259766"/>
     <use xlink:href="#DejaVuSans-63" x="747.359375"/>
     <use xlink:href="#DejaVuSans-20" x="802.339844"/>
     <use xlink:href="#DejaVuSans-7c" x="834.126953"/>
     <use xlink:href="#DejaVuSans-20" x="867.818359"/>
     <use xlink:href="#DejaVuSans-72" x="899.605469"/>
     <use xlink:href="#DejaVuSans-65" x="938.46875"/>
     <use xlink:href="#DejaVuSans-76" x="999.992188"/>
     <use xlink:href="#DejaVuSans-65" x="1059.171875"/>
     <use xlink:href="#DejaVuSans-72" x="1120.695312"/>
     <use xlink:href="#DejaVuSans-73" x="1161.808594"/>
     <use xlink:href="#DejaVuSans-65" x="1213.908203"/>
     <use xlink:href="#DejaVuSans-20" x="1275.431641"/>
     <use xlink:href="#DejaVuSans-3d" x="1307.21875"/>
     <use xlink:href="#DejaVuSans-20" x="1391.007812"/>
     <use xlink:href="#DejaVuSans-46" x="1422.794922"/>
     <use xlink:href="#DejaVuSans-61" x="1471.189453"/>
     <use xlink:href="#DejaVuSans-6c" x="1532.46875"/>
     <use xlink:href="#DejaVuSans-73" x="1560.251953"/>
     <use xlink:href="#DejaVuSans-65" x="1612.351562"/>
    </g>
   </g>
  </g>
  <g id="axes_2">
   <g id="patch_33">
    <path d="M 239.280625 188.082187 
L 417.295625 188.082187 
L 417.295625 20.842187 
L 239.280625 20.842187 
z
" style="fill: #ffffff"/>
   </g>
   <g id="patch_34">
    <path d="M 283.784375 188.082187 
L 288.870518 188.082187 
L 288.870518 174.110592 
L 283.784375 174.110592 
z
" clip-path="url(#p5637cb97c9)" style="fill: #7f7f7f"/>
   </g>
   <g id="patch_35">
    <path d="M 372.791875 188.082187 
L 377.878018 188.082187 
L 377.878018 35.791795 
L 372.791875 35.791795 
z
" clip-path="url(#p5637cb97c9)" style="fill: #7f7f7f"/>
   </g>
   <g id="patch_36">
    <path d="M 288.870518 188.082187 
L 293.956661 188.082187 
L 293.956661 174.110592 
L 288.870518 174.110592 
z
" clip-path="url(#p5637cb97c9)" style="fill: #a9aa35"/>
   </g>
   <g id="patch_37">
    <path d="M 377.878018 188.082187 
L 382.964161 188.082187 
L 382.964161 35.791795 
L 377.878018 35.791795 
z
" clip-path="url(#p5637cb97c9)" style="fill: #a9aa35"/>
   </g>
   <g id="patch_38">
    <path d="M 293.956661 188.082187 
L 299.042804 188.082187 
L 299.042804 174.110592 
L 293.956661 174.110592 
z
" clip-path="url(#p5637cb97c9)" style="fill: #2eabb8"/>
   </g>
   <g id="patch_39">
    <path d="M 382.964161 188.082187 
L 388.050304 188.082187 
L 388.050304 35.791795 
L 382.964161 35.791795 
z
" clip-path="url(#p5637cb97c9)" style="fill: #2eabb8"/>
   </g>
   <g id="patch_40">
    <path d="M 299.042804 188.082187 
L 304.128946 188.082187 
L 304.128946 144.770241 
L 299.042804 144.770241 
z
" clip-path="url(#p5637cb97c9)" style="fill: #3274a1"/>
   </g>
   <g id="patch_41">
    <path d="M 388.050304 188.082187 
L 393.136446 188.082187 
L 393.136446 65.132146 
L 388.050304 65.132146 
z
" clip-path="url(#p5637cb97c9)" style="fill: #3274a1"/>
   </g>
   <g id="patch_42">
    <path d="M 304.128946 188.082187 
L 309.215089 188.082187 
L 309.215089 121.018528 
L 304.128946 121.018528 
z
" clip-path="url(#p5637cb97c9)" style="fill: #e1812c"/>
   </g>
   <g id="patch_43">
    <path d="M 393.136446 188.082187 
L 398.222589 188.082187 
L 398.222589 121.018528 
L 393.136446 121.018528 
z
" clip-path="url(#p5637cb97c9)" style="fill: #e1812c"/>
   </g>
   <g id="patch_44">
    <path d="M 309.215089 188.082187 
L 314.301232 188.082187 
L 314.301232 171.316273 
L 309.215089 171.316273 
z
" clip-path="url(#p5637cb97c9)" style="fill: #3a923a"/>
   </g>
   <g id="patch_45">
    <path d="M 398.222589 188.082187 
L 403.308732 188.082187 
L 403.308732 38.586114 
L 398.222589 38.586114 
z
" clip-path="url(#p5637cb97c9)" style="fill: #3a923a"/>
   </g>
   <g id="patch_46">
    <path d="M 314.301232 188.082187 
L 319.387375 188.082187 
L 319.387375 181.09639 
L 314.301232 181.09639 
z
" clip-path="url(#p5637cb97c9)" style="fill: #c03d3e"/>
   </g>
   <g id="patch_47">
    <path d="M 403.308732 188.082187 
L 408.394875 188.082187 
L 408.394875 28.805997 
L 403.308732 28.805997 
z
" clip-path="url(#p5637cb97c9)" style="fill: #c03d3e"/>
   </g>
   <g id="patch_48">
    <path d="M 283.784375 188.082187 
L 283.784375 188.082187 
L 283.784375 188.082187 
L 283.784375 188.082187 
z
" clip-path="url(#p5637cb97c9)" style="fill: #3274a1"/>
   </g>
   <g id="patch_49">
    <path d="M 283.784375 188.082187 
L 283.784375 188.082187 
L 283.784375 188.082187 
L 283.784375 188.082187 
z
" clip-path="url(#p5637cb97c9)" style="fill: #e1812c"/>
   </g>
   <g id="patch_50">
    <path d="M 283.784375 188.082187 
L 283.784375 188.082187 
L 283.784375 188.082187 
L 283.784375 188.082187 
z
" clip-path="url(#p5637cb97c9)" style="fill: #3a923a"/>
   </g>
   <g id="patch_51">
    <path d="M 283.784375 188.082187 
L 283.784375 188.082187 
L 283.784375 188.082187 
L 283.784375 188.082187 
z
" clip-path="url(#p5637cb97c9)" style="fill: #c03d3e"/>
   </g>
   <g id="patch_52">
    <path d="M 283.784375 188.082187 
L 283.784375 188.082187 
L 283.784375 188.082187 
L 283.784375 188.082187 
z
" clip-path="url(#p5637cb97c9)" style="fill: #9372b2"/>
   </g>
   <g id="patch_53">
    <path d="M 283.784375 188.082187 
L 283.784375 188.082187 
L 283.784375 188.082187 
L 283.784375 188.082187 
z
" clip-path="url(#p5637cb97c9)" style="fill: #845b53"/>
   </g>
   <g id="patch_54">
    <path d="M 283.784375 188.082187 
L 283.784375 188.082187 
L 283.784375 188.082187 
L 283.784375 188.082187 
z
" clip-path="url(#p5637cb97c9)" style="fill: #d684bd"/>
   </g>
   <g id="patch_55">
    <path d="M 283.784375 188.082187 
L 283.784375 188.082187 
L 283.784375 188.082187 
L 283.784375 188.082187 
z
" clip-path="url(#p5637cb97c9)" style="fill: #7f7f7f"/>
   </g>
   <g id="patch_56">
    <path d="M 283.784375 188.082187 
L 283.784375 188.082187 
L 283.784375 188.082187 
L 283.784375 188.082187 
z
" clip-path="url(#p5637cb97c9)" style="fill: #a9aa35"/>
   </g>
   <g id="patch_57">
    <path d="M 283.784375 188.082187 
L 283.784375 188.082187 
L 283.784375 188.082187 
L 283.784375 188.082187 
z
" clip-path="url(#p5637cb97c9)" style="fill: #2eabb8"/>
   </g>
   <g id="patch_58">
    <path d="M 283.784375 188.082187 
L 283.784375 188.082187 
L 283.784375 188.082187 
L 283.784375 188.082187 
z
" clip-path="url(#p5637cb97c9)" style="fill: #3274a1"/>
   </g>
   <g id="patch_59">
    <path d="M 283.784375 188.082187 
L 283.784375 188.082187 
L 283.784375 188.082187 
L 283.784375 188.082187 
z
" clip-path="url(#p5637cb97c9)" style="fill: #e1812c"/>
   </g>
   <g id="patch_60">
    <path d="M 283.784375 188.082187 
L 283.784375 188.082187 
L 283.784375 188.082187 
L 283.784375 188.082187 
z
" clip-path="url(#p5637cb97c9)" style="fill: #3a923a"/>
   </g>
   <g id="patch_61">
    <path d="M 283.784375 188.082187 
L 283.784375 188.082187 
L 283.784375 188.082187 
L 283.784375 188.082187 
z
" clip-path="url(#p5637cb97c9)" style="fill: #c03d3e"/>
   </g>
   <g id="matplotlib.axis_3">
    <g id="xtick_3">
     <g id="line2d_9">
      <g>
       <use xlink:href="#m1e086684f9" x="283.784375" y="188.082187" style="stroke: #000000; stroke-width: 0.8"/>
      </g>
     </g>
    </g>
    <g id="xtick_4">
     <g id="line2d_10">
      <g>
       <use xlink:href="#m1e086684f9" x="372.791875" y="188.082187" style="stroke: #000000; stroke-width: 0.8"/>
      </g>
     </g>
    </g>
   </g>
   <g id="matplotlib.axis_4">
    <g id="ytick_7">
     <g id="line2d_11">
      <g>
       <use xlink:href="#ma63835e2fa" x="239.280625" y="188.082187" style="stroke: #000000; stroke-width: 0.8"/>
      </g>
     </g>
    </g>
    <g id="ytick_8">
     <g id="line2d_12">
      <g>
       <use xlink:href="#ma63835e2fa" x="239.280625" y="160.138996" style="stroke: #000000; stroke-width: 0.8"/>
      </g>
     </g>
    </g>
    <g id="ytick_9">
     <g id="line2d_13">
      <g>
       <use xlink:href="#ma63835e2fa" x="239.280625" y="132.195805" style="stroke: #000000; stroke-width: 0.8"/>
      </g>
     </g>
    </g>
    <g id="ytick_10">
     <g id="line2d_14">
      <g>
       <use xlink:href="#ma63835e2fa" x="239.280625" y="104.252614" style="stroke: #000000; stroke-width: 0.8"/>
      </g>
     </g>
    </g>
    <g id="ytick_11">
     <g id="line2d_15">
      <g>
       <use xlink:href="#ma63835e2fa" x="239.280625" y="76.309422" style="stroke: #000000; stroke-width: 0.8"/>
      </g>
     </g>
    </g>
    <g id="ytick_12">
     <g id="line2d_16">
      <g>
       <use xlink:href="#ma63835e2fa" x="239.280625" y="48.366231" style="stroke: #000000; stroke-width: 0.8"/>
      </g>
     </g>
    </g>
   </g>
   <g id="patch_62">
    <path d="M 239.280625 188.082187 
L 239.280625 20.842187 
" style="fill: none; stroke: #000000; stroke-width: 0.8; stroke-linejoin: miter; stroke-linecap: square"/>
   </g>
   <g id="patch_63">
    <path d="M 239.280625 188.082187 
L 417.295625 188.082187 
" style="fill: none; stroke: #000000; stroke-width: 0.8; stroke-linejoin: miter; stroke-linecap: square"/>
   </g>
   <g id="text_9">
    <!-- score = rand_sc | reverse = True -->
    <g transform="translate(246.531094 14.842187) scale(0.1 -0.1)">
     <defs>
      <path id="DejaVuSans-54" d="M -19 4666 
L 3928 4666 
L 3928 4134 
L 2272 4134 
L 2272 0 
L 1638 0 
L 1638 4134 
L -19 4134 
L -19 4666 
z
" transform="scale(0.015625)"/>
     </defs>
     <use xlink:href="#DejaVuSans-73"/>
     <use xlink:href="#DejaVuSans-63" x="52.099609"/>
     <use xlink:href="#DejaVuSans-6f" x="107.080078"/>
     <use xlink:href="#DejaVuSans-72" x="168.261719"/>
     <use xlink:href="#DejaVuSans-65" x="207.125"/>
     <use xlink:href="#DejaVuSans-20" x="268.648438"/>
     <use xlink:href="#DejaVuSans-3d" x="300.435547"/>
     <use xlink:href="#DejaVuSans-20" x="384.224609"/>
     <use xlink:href="#DejaVuSans-72" x="416.011719"/>
     <use xlink:href="#DejaVuSans-61" x="457.125"/>
     <use xlink:href="#DejaVuSans-6e" x="518.404297"/>
     <use xlink:href="#DejaVuSans-64" x="581.783203"/>
     <use xlink:href="#DejaVuSans-5f" x="645.259766"/>
     <use xlink:href="#DejaVuSans-73" x="695.259766"/>
     <use xlink:href="#DejaVuSans-63" x="747.359375"/>
     <use xlink:href="#DejaVuSans-20" x="802.339844"/>
     <use xlink:href="#DejaVuSans-7c" x="834.126953"/>
     <use xlink:href="#DejaVuSans-20" x="867.818359"/>
     <use xlink:href="#DejaVuSans-72" x="899.605469"/>
     <use xlink:href="#DejaVuSans-65" x="938.46875"/>
     <use xlink:href="#DejaVuSans-76" x="999.992188"/>
     <use xlink:href="#DejaVuSans-65" x="1059.171875"/>
     <use xlink:href="#DejaVuSans-72" x="1120.695312"/>
     <use xlink:href="#DejaVuSans-73" x="1161.808594"/>
     <use xlink:href="#DejaVuSans-65" x="1213.908203"/>
     <use xlink:href="#DejaVuSans-20" x="1275.431641"/>
     <use xlink:href="#DejaVuSans-3d" x="1307.21875"/>
     <use xlink:href="#DejaVuSans-20" x="1391.007812"/>
     <use xlink:href="#DejaVuSans-54" x="1422.794922"/>
     <use xlink:href="#DejaVuSans-72" x="1469.128906"/>
     <use xlink:href="#DejaVuSans-75" x="1510.242188"/>
     <use xlink:href="#DejaVuSans-65" x="1573.621094"/>
    </g>
   </g>
  </g>
  <g id="axes_3">
   <g id="patch_64">
    <path d="M 46.965625 386.162187 
L 224.980625 386.162187 
L 224.980625 218.922187 
L 46.965625 218.922187 
z
" style="fill: #ffffff"/>
   </g>
   <g id="patch_65">
    <path d="M 55.866375 386.162187 
L 60.952518 386.162187 
L 60.952518 270.197944 
L 55.866375 270.197944 
z
" clip-path="url(#p0978aac27f)" style="fill: #3274a1"/>
   </g>
   <g id="patch_66">
    <path d="M 144.873875 386.162187 
L 149.960018 386.162187 
L 149.960018 335.864443 
L 144.873875 335.864443 
z
" clip-path="url(#p0978aac27f)" style="fill: #3274a1"/>
   </g>
   <g id="patch_67">
    <path d="M 60.952518 386.162187 
L 66.038661 386.162187 
L 66.038661 277.183741 
L 60.952518 277.183741 
z
" clip-path="url(#p0978aac27f)" style="fill: #e1812c"/>
   </g>
   <g id="patch_68">
    <path d="M 149.960018 386.162187 
L 155.046161 386.162187 
L 155.046161 328.878645 
L 149.960018 328.878645 
z
" clip-path="url(#p0978aac27f)" style="fill: #e1812c"/>
   </g>
   <g id="patch_69">
    <path d="M 66.038661 386.162187 
L 71.124804 386.162187 
L 71.124804 278.580901 
L 66.038661 278.580901 
z
" clip-path="url(#p0978aac27f)" style="fill: #3a923a"/>
   </g>
   <g id="patch_70">
    <path d="M 155.046161 386.162187 
L 160.132304 386.162187 
L 160.132304 327.481486 
L 155.046161 327.481486 
z
" clip-path="url(#p0978aac27f)" style="fill: #3a923a"/>
   </g>
   <g id="patch_71">
    <path d="M 71.124804 386.162187 
L 76.210946 386.162187 
L 76.210946 275.786582 
L 71.124804 275.786582 
z
" clip-path="url(#p0978aac27f)" style="fill: #c03d3e"/>
   </g>
   <g id="patch_72">
    <path d="M 160.132304 386.162187 
L 165.218446 386.162187 
L 165.218446 330.275805 
L 160.132304 330.275805 
z
" clip-path="url(#p0978aac27f)" style="fill: #c03d3e"/>
   </g>
   <g id="patch_73">
    <path d="M 76.210946 386.162187 
L 81.297089 386.162187 
L 81.297089 296.743975 
L 76.210946 296.743975 
z
" clip-path="url(#p0978aac27f)" style="fill: #9372b2"/>
   </g>
   <g id="patch_74">
    <path d="M 165.218446 386.162187 
L 170.304589 386.162187 
L 170.304589 341.453081 
L 165.218446 341.453081 
z
" clip-path="url(#p0978aac27f)" style="fill: #9372b2"/>
   </g>
   <g id="patch_75">
    <path d="M 81.297089 386.162187 
L 86.383232 386.162187 
L 86.383232 281.37522 
L 81.297089 281.37522 
z
" clip-path="url(#p0978aac27f)" style="fill: #845b53"/>
   </g>
   <g id="patch_76">
    <path d="M 170.304589 386.162187 
L 175.390732 386.162187 
L 175.390732 324.687167 
L 170.304589 324.687167 
z
" clip-path="url(#p0978aac27f)" style="fill: #845b53"/>
   </g>
   <g id="patch_77">
    <path d="M 86.383232 386.162187 
L 91.469375 386.162187 
L 91.469375 264.609305 
L 86.383232 264.609305 
z
" clip-path="url(#p0978aac27f)" style="fill: #d684bd"/>
   </g>
   <g id="patch_78">
    <path d="M 175.390732 386.162187 
L 180.476875 386.162187 
L 180.476875 341.453081 
L 175.390732 341.453081 
z
" clip-path="url(#p0978aac27f)" style="fill: #d684bd"/>
   </g>
   <g id="patch_79">
    <path d="M 91.469375 386.162187 
L 91.469375 386.162187 
L 91.469375 386.162187 
L 91.469375 386.162187 
z
" clip-path="url(#p0978aac27f)" style="fill: #3274a1"/>
   </g>
   <g id="patch_80">
    <path d="M 91.469375 386.162187 
L 91.469375 386.162187 
L 91.469375 386.162187 
L 91.469375 386.162187 
z
" clip-path="url(#p0978aac27f)" style="fill: #e1812c"/>
   </g>
   <g id="patch_81">
    <path d="M 91.469375 386.162187 
L 91.469375 386.162187 
L 91.469375 386.162187 
L 91.469375 386.162187 
z
" clip-path="url(#p0978aac27f)" style="fill: #3a923a"/>
   </g>
   <g id="patch_82">
    <path d="M 91.469375 386.162187 
L 91.469375 386.162187 
L 91.469375 386.162187 
L 91.469375 386.162187 
z
" clip-path="url(#p0978aac27f)" style="fill: #c03d3e"/>
   </g>
   <g id="patch_83">
    <path d="M 91.469375 386.162187 
L 91.469375 386.162187 
L 91.469375 386.162187 
L 91.469375 386.162187 
z
" clip-path="url(#p0978aac27f)" style="fill: #9372b2"/>
   </g>
   <g id="patch_84">
    <path d="M 91.469375 386.162187 
L 91.469375 386.162187 
L 91.469375 386.162187 
L 91.469375 386.162187 
z
" clip-path="url(#p0978aac27f)" style="fill: #845b53"/>
   </g>
   <g id="patch_85">
    <path d="M 91.469375 386.162187 
L 91.469375 386.162187 
L 91.469375 386.162187 
L 91.469375 386.162187 
z
" clip-path="url(#p0978aac27f)" style="fill: #d684bd"/>
   </g>
   <g id="patch_86">
    <path d="M 91.469375 386.162187 
L 91.469375 386.162187 
L 91.469375 386.162187 
L 91.469375 386.162187 
z
" clip-path="url(#p0978aac27f)" style="fill: #7f7f7f"/>
   </g>
   <g id="patch_87">
    <path d="M 91.469375 386.162187 
L 91.469375 386.162187 
L 91.469375 386.162187 
L 91.469375 386.162187 
z
" clip-path="url(#p0978aac27f)" style="fill: #a9aa35"/>
   </g>
   <g id="patch_88">
    <path d="M 91.469375 386.162187 
L 91.469375 386.162187 
L 91.469375 386.162187 
L 91.469375 386.162187 
z
" clip-path="url(#p0978aac27f)" style="fill: #2eabb8"/>
   </g>
   <g id="patch_89">
    <path d="M 91.469375 386.162187 
L 91.469375 386.162187 
L 91.469375 386.162187 
L 91.469375 386.162187 
z
" clip-path="url(#p0978aac27f)" style="fill: #3274a1"/>
   </g>
   <g id="patch_90">
    <path d="M 91.469375 386.162187 
L 91.469375 386.162187 
L 91.469375 386.162187 
L 91.469375 386.162187 
z
" clip-path="url(#p0978aac27f)" style="fill: #e1812c"/>
   </g>
   <g id="patch_91">
    <path d="M 91.469375 386.162187 
L 91.469375 386.162187 
L 91.469375 386.162187 
L 91.469375 386.162187 
z
" clip-path="url(#p0978aac27f)" style="fill: #3a923a"/>
   </g>
   <g id="patch_92">
    <path d="M 91.469375 386.162187 
L 91.469375 386.162187 
L 91.469375 386.162187 
L 91.469375 386.162187 
z
" clip-path="url(#p0978aac27f)" style="fill: #c03d3e"/>
   </g>
   <g id="matplotlib.axis_5">
    <g id="xtick_5">
     <g id="line2d_17">
      <g>
       <use xlink:href="#m1e086684f9" x="91.469375" y="386.162187" style="stroke: #000000; stroke-width: 0.8"/>
      </g>
     </g>
     <g id="text_10">
      <!-- True -->
      <g transform="translate(80.852187 400.760625) scale(0.1 -0.1)">
       <use xlink:href="#DejaVuSans-54"/>
       <use xlink:href="#DejaVuSans-72" x="46.333984"/>
       <use xlink:href="#DejaVuSans-75" x="87.447266"/>
       <use xlink:href="#DejaVuSans-65" x="150.826172"/>
      </g>
     </g>
    </g>
    <g id="xtick_6">
     <g id="line2d_18">
      <g>
       <use xlink:href="#m1e086684f9" x="180.476875" y="386.162187" style="stroke: #000000; stroke-width: 0.8"/>
      </g>
     </g>
     <g id="text_11">
      <!-- False -->
      <g transform="translate(167.922969 400.760625) scale(0.1 -0.1)">
       <use xlink:href="#DejaVuSans-46"/>
       <use xlink:href="#DejaVuSans-61" x="48.394531"/>
       <use xlink:href="#DejaVuSans-6c" x="109.673828"/>
       <use xlink:href="#DejaVuSans-73" x="137.457031"/>
       <use xlink:href="#DejaVuSans-65" x="189.556641"/>
      </g>
     </g>
    </g>
    <g id="text_12">
     <!-- results -->
     <g transform="translate(119.22625 414.43875) scale(0.1 -0.1)">
      <use xlink:href="#DejaVuSans-72"/>
      <use xlink:href="#DejaVuSans-65" x="38.863281"/>
      <use xlink:href="#DejaVuSans-73" x="100.386719"/>
      <use xlink:href="#DejaVuSans-75" x="152.486328"/>
      <use xlink:href="#DejaVuSans-6c" x="215.865234"/>
      <use xlink:href="#DejaVuSans-74" x="243.648438"/>
      <use xlink:href="#DejaVuSans-73" x="282.857422"/>
     </g>
    </g>
   </g>
   <g id="matplotlib.axis_6">
    <g id="ytick_13">
     <g id="line2d_19">
      <g>
       <use xlink:href="#ma63835e2fa" x="46.965625" y="386.162187" style="stroke: #000000; stroke-width: 0.8"/>
      </g>
     </g>
     <g id="text_13">
      <!-- 0 -->
      <g transform="translate(33.603125 389.961406) scale(0.1 -0.1)">
       <use xlink:href="#DejaVuSans-30"/>
      </g>
     </g>
    </g>
    <g id="ytick_14">
     <g id="line2d_20">
      <g>
       <use xlink:href="#ma63835e2fa" x="46.965625" y="358.218996" style="stroke: #000000; stroke-width: 0.8"/>
      </g>
     </g>
     <g id="text_14">
      <!-- 20 -->
      <g transform="translate(27.240625 362.018215) scale(0.1 -0.1)">
       <use xlink:href="#DejaVuSans-32"/>
       <use xlink:href="#DejaVuSans-30" x="63.623047"/>
      </g>
     </g>
    </g>
    <g id="ytick_15">
     <g id="line2d_21">
      <g>
       <use xlink:href="#ma63835e2fa" x="46.965625" y="330.275805" style="stroke: #000000; stroke-width: 0.8"/>
      </g>
     </g>
     <g id="text_15">
      <!-- 40 -->
      <g transform="translate(27.240625 334.075024) scale(0.1 -0.1)">
       <use xlink:href="#DejaVuSans-34"/>
       <use xlink:href="#DejaVuSans-30" x="63.623047"/>
      </g>
     </g>
    </g>
    <g id="ytick_16">
     <g id="line2d_22">
      <g>
       <use xlink:href="#ma63835e2fa" x="46.965625" y="302.332614" style="stroke: #000000; stroke-width: 0.8"/>
      </g>
     </g>
     <g id="text_16">
      <!-- 60 -->
      <g transform="translate(27.240625 306.131832) scale(0.1 -0.1)">
       <use xlink:href="#DejaVuSans-36"/>
       <use xlink:href="#DejaVuSans-30" x="63.623047"/>
      </g>
     </g>
    </g>
    <g id="ytick_17">
     <g id="line2d_23">
      <g>
       <use xlink:href="#ma63835e2fa" x="46.965625" y="274.389422" style="stroke: #000000; stroke-width: 0.8"/>
      </g>
     </g>
     <g id="text_17">
      <!-- 80 -->
      <g transform="translate(27.240625 278.188641) scale(0.1 -0.1)">
       <use xlink:href="#DejaVuSans-38"/>
       <use xlink:href="#DejaVuSans-30" x="63.623047"/>
      </g>
     </g>
    </g>
    <g id="ytick_18">
     <g id="line2d_24">
      <g>
       <use xlink:href="#ma63835e2fa" x="46.965625" y="246.446231" style="stroke: #000000; stroke-width: 0.8"/>
      </g>
     </g>
     <g id="text_18">
      <!-- 100 -->
      <g transform="translate(20.878125 250.24545) scale(0.1 -0.1)">
       <use xlink:href="#DejaVuSans-31"/>
       <use xlink:href="#DejaVuSans-30" x="63.623047"/>
       <use xlink:href="#DejaVuSans-30" x="127.246094"/>
      </g>
     </g>
    </g>
    <g id="text_19">
     <!-- count -->
     <g transform="translate(14.798438 316.648437) rotate(-90) scale(0.1 -0.1)">
      <use xlink:href="#DejaVuSans-63"/>
      <use xlink:href="#DejaVuSans-6f" x="54.980469"/>
      <use xlink:href="#DejaVuSans-75" x="116.162109"/>
      <use xlink:href="#DejaVuSans-6e" x="179.541016"/>
      <use xlink:href="#DejaVuSans-74" x="242.919922"/>
     </g>
    </g>
   </g>
   <g id="patch_93">
    <path d="M 46.965625 386.162187 
L 46.965625 218.922187 
" style="fill: none; stroke: #000000; stroke-width: 0.8; stroke-linejoin: miter; stroke-linecap: square"/>
   </g>
   <g id="patch_94">
    <path d="M 46.965625 386.162187 
L 224.980625 386.162187 
" style="fill: none; stroke: #000000; stroke-width: 0.8; stroke-linejoin: miter; stroke-linecap: square"/>
   </g>
   <g id="text_20">
    <!-- score = Rosetta_sc | reverse = False -->
    <g transform="translate(44.767656 212.922187) scale(0.1 -0.1)">
     <defs>
      <path id="DejaVuSans-52" d="M 2841 2188 
Q 3044 2119 3236 1894 
Q 3428 1669 3622 1275 
L 4263 0 
L 3584 0 
L 2988 1197 
Q 2756 1666 2539 1819 
Q 2322 1972 1947 1972 
L 1259 1972 
L 1259 0 
L 628 0 
L 628 4666 
L 2053 4666 
Q 2853 4666 3247 4331 
Q 3641 3997 3641 3322 
Q 3641 2881 3436 2590 
Q 3231 2300 2841 2188 
z
M 1259 4147 
L 1259 2491 
L 2053 2491 
Q 2509 2491 2742 2702 
Q 2975 2913 2975 3322 
Q 2975 3731 2742 3939 
Q 2509 4147 2053 4147 
L 1259 4147 
z
" transform="scale(0.015625)"/>
     </defs>
     <use xlink:href="#DejaVuSans-73"/>
     <use xlink:href="#DejaVuSans-63" x="52.099609"/>
     <use xlink:href="#DejaVuSans-6f" x="107.080078"/>
     <use xlink:href="#DejaVuSans-72" x="168.261719"/>
     <use xlink:href="#DejaVuSans-65" x="207.125"/>
     <use xlink:href="#DejaVuSans-20" x="268.648438"/>
     <use xlink:href="#DejaVuSans-3d" x="300.435547"/>
     <use xlink:href="#DejaVuSans-20" x="384.224609"/>
     <use xlink:href="#DejaVuSans-52" x="416.011719"/>
     <use xlink:href="#DejaVuSans-6f" x="480.994141"/>
     <use xlink:href="#DejaVuSans-73" x="542.175781"/>
     <use xlink:href="#DejaVuSans-65" x="594.275391"/>
     <use xlink:href="#DejaVuSans-74" x="655.798828"/>
     <use xlink:href="#DejaVuSans-74" x="695.007812"/>
     <use xlink:href="#DejaVuSans-61" x="734.216797"/>
     <use xlink:href="#DejaVuSans-5f" x="795.496094"/>
     <use xlink:href="#DejaVuSans-73" x="845.496094"/>
     <use xlink:href="#DejaVuSans-63" x="897.595703"/>
     <use xlink:href="#DejaVuSans-20" x="952.576172"/>
     <use xlink:href="#DejaVuSans-7c" x="984.363281"/>
     <use xlink:href="#DejaVuSans-20" x="1018.054688"/>
     <use xlink:href="#DejaVuSans-72" x="1049.841797"/>
     <use xlink:href="#DejaVuSans-65" x="1088.705078"/>
     <use xlink:href="#DejaVuSans-76" x="1150.228516"/>
     <use xlink:href="#DejaVuSans-65" x="1209.408203"/>
     <use xlink:href="#DejaVuSans-72" x="1270.931641"/>
     <use xlink:href="#DejaVuSans-73" x="1312.044922"/>
     <use xlink:href="#DejaVuSans-65" x="1364.144531"/>
     <use xlink:href="#DejaVuSans-20" x="1425.667969"/>
     <use xlink:href="#DejaVuSans-3d" x="1457.455078"/>
     <use xlink:href="#DejaVuSans-20" x="1541.244141"/>
     <use xlink:href="#DejaVuSans-46" x="1573.03125"/>
     <use xlink:href="#DejaVuSans-61" x="1621.425781"/>
     <use xlink:href="#DejaVuSans-6c" x="1682.705078"/>
     <use xlink:href="#DejaVuSans-73" x="1710.488281"/>
     <use xlink:href="#DejaVuSans-65" x="1762.587891"/>
    </g>
   </g>
  </g>
  <g id="axes_4">
   <g id="patch_95">
    <path d="M 239.280625 386.162187 
L 417.295625 386.162187 
L 417.295625 218.922187 
L 239.280625 218.922187 
z
" style="fill: #ffffff"/>
   </g>
   <g id="patch_96">
    <path d="M 283.784375 386.162187 
L 288.870518 386.162187 
L 288.870518 321.892847 
L 283.784375 321.892847 
z
" clip-path="url(#pee4101ddbc)" style="fill: #7f7f7f"/>
   </g>
   <g id="patch_97">
    <path d="M 372.791875 386.162187 
L 377.878018 386.162187 
L 377.878018 284.169539 
L 372.791875 284.169539 
z
" clip-path="url(#pee4101ddbc)" style="fill: #7f7f7f"/>
   </g>
   <g id="patch_98">
    <path d="M 288.870518 386.162187 
L 293.956661 386.162187 
L 293.956661 338.658762 
L 288.870518 338.658762 
z
" clip-path="url(#pee4101ddbc)" style="fill: #a9aa35"/>
   </g>
   <g id="patch_99">
    <path d="M 377.878018 386.162187 
L 382.964161 386.162187 
L 382.964161 267.403624 
L 377.878018 267.403624 
z
" clip-path="url(#pee4101ddbc)" style="fill: #a9aa35"/>
   </g>
   <g id="patch_100">
    <path d="M 293.956661 386.162187 
L 299.042804 386.162187 
L 299.042804 321.892847 
L 293.956661 321.892847 
z
" clip-path="url(#pee4101ddbc)" style="fill: #2eabb8"/>
   </g>
   <g id="patch_101">
    <path d="M 382.964161 386.162187 
L 388.050304 386.162187 
L 388.050304 284.169539 
L 382.964161 284.169539 
z
" clip-path="url(#pee4101ddbc)" style="fill: #2eabb8"/>
   </g>
   <g id="patch_102">
    <path d="M 299.042804 386.162187 
L 304.128946 386.162187 
L 304.128946 338.658762 
L 299.042804 338.658762 
z
" clip-path="url(#pee4101ddbc)" style="fill: #3274a1"/>
   </g>
   <g id="patch_103">
    <path d="M 388.050304 386.162187 
L 393.136446 386.162187 
L 393.136446 267.403624 
L 388.050304 267.403624 
z
" clip-path="url(#pee4101ddbc)" style="fill: #3274a1"/>
   </g>
   <g id="patch_104">
    <path d="M 304.128946 386.162187 
L 309.215089 386.162187 
L 309.215089 355.424677 
L 304.128946 355.424677 
z
" clip-path="url(#pee4101ddbc)" style="fill: #e1812c"/>
   </g>
   <g id="patch_105">
    <path d="M 393.136446 386.162187 
L 398.222589 386.162187 
L 398.222589 282.77238 
L 393.136446 282.77238 
z
" clip-path="url(#pee4101ddbc)" style="fill: #e1812c"/>
   </g>
   <g id="patch_106">
    <path d="M 309.215089 386.162187 
L 314.301232 386.162187 
L 314.301232 317.701369 
L 309.215089 317.701369 
z
" clip-path="url(#pee4101ddbc)" style="fill: #3a923a"/>
   </g>
   <g id="patch_107">
    <path d="M 398.222589 386.162187 
L 403.308732 386.162187 
L 403.308732 288.361018 
L 398.222589 288.361018 
z
" clip-path="url(#pee4101ddbc)" style="fill: #3a923a"/>
   </g>
   <g id="patch_108">
    <path d="M 314.301232 386.162187 
L 319.387375 386.162187 
L 319.387375 319.098528 
L 314.301232 319.098528 
z
" clip-path="url(#pee4101ddbc)" style="fill: #c03d3e"/>
   </g>
   <g id="patch_109">
    <path d="M 403.308732 386.162187 
L 408.394875 386.162187 
L 408.394875 286.963858 
L 403.308732 286.963858 
z
" clip-path="url(#pee4101ddbc)" style="fill: #c03d3e"/>
   </g>
   <g id="patch_110">
    <path d="M 283.784375 386.162187 
L 283.784375 386.162187 
L 283.784375 386.162187 
L 283.784375 386.162187 
z
" clip-path="url(#pee4101ddbc)" style="fill: #3274a1"/>
   </g>
   <g id="patch_111">
    <path d="M 283.784375 386.162187 
L 283.784375 386.162187 
L 283.784375 386.162187 
L 283.784375 386.162187 
z
" clip-path="url(#pee4101ddbc)" style="fill: #e1812c"/>
   </g>
   <g id="patch_112">
    <path d="M 283.784375 386.162187 
L 283.784375 386.162187 
L 283.784375 386.162187 
L 283.784375 386.162187 
z
" clip-path="url(#pee4101ddbc)" style="fill: #3a923a"/>
   </g>
   <g id="patch_113">
    <path d="M 283.784375 386.162187 
L 283.784375 386.162187 
L 283.784375 386.162187 
L 283.784375 386.162187 
z
" clip-path="url(#pee4101ddbc)" style="fill: #c03d3e"/>
   </g>
   <g id="patch_114">
    <path d="M 283.784375 386.162187 
L 283.784375 386.162187 
L 283.784375 386.162187 
L 283.784375 386.162187 
z
" clip-path="url(#pee4101ddbc)" style="fill: #9372b2"/>
   </g>
   <g id="patch_115">
    <path d="M 283.784375 386.162187 
L 283.784375 386.162187 
L 283.784375 386.162187 
L 283.784375 386.162187 
z
" clip-path="url(#pee4101ddbc)" style="fill: #845b53"/>
   </g>
   <g id="patch_116">
    <path d="M 283.784375 386.162187 
L 283.784375 386.162187 
L 283.784375 386.162187 
L 283.784375 386.162187 
z
" clip-path="url(#pee4101ddbc)" style="fill: #d684bd"/>
   </g>
   <g id="patch_117">
    <path d="M 283.784375 386.162187 
L 283.784375 386.162187 
L 283.784375 386.162187 
L 283.784375 386.162187 
z
" clip-path="url(#pee4101ddbc)" style="fill: #7f7f7f"/>
   </g>
   <g id="patch_118">
    <path d="M 283.784375 386.162187 
L 283.784375 386.162187 
L 283.784375 386.162187 
L 283.784375 386.162187 
z
" clip-path="url(#pee4101ddbc)" style="fill: #a9aa35"/>
   </g>
   <g id="patch_119">
    <path d="M 283.784375 386.162187 
L 283.784375 386.162187 
L 283.784375 386.162187 
L 283.784375 386.162187 
z
" clip-path="url(#pee4101ddbc)" style="fill: #2eabb8"/>
   </g>
   <g id="patch_120">
    <path d="M 283.784375 386.162187 
L 283.784375 386.162187 
L 283.784375 386.162187 
L 283.784375 386.162187 
z
" clip-path="url(#pee4101ddbc)" style="fill: #3274a1"/>
   </g>
   <g id="patch_121">
    <path d="M 283.784375 386.162187 
L 283.784375 386.162187 
L 283.784375 386.162187 
L 283.784375 386.162187 
z
" clip-path="url(#pee4101ddbc)" style="fill: #e1812c"/>
   </g>
   <g id="patch_122">
    <path d="M 283.784375 386.162187 
L 283.784375 386.162187 
L 283.784375 386.162187 
L 283.784375 386.162187 
z
" clip-path="url(#pee4101ddbc)" style="fill: #3a923a"/>
   </g>
   <g id="patch_123">
    <path d="M 283.784375 386.162187 
L 283.784375 386.162187 
L 283.784375 386.162187 
L 283.784375 386.162187 
z
" clip-path="url(#pee4101ddbc)" style="fill: #c03d3e"/>
   </g>
   <g id="matplotlib.axis_7">
    <g id="xtick_7">
     <g id="line2d_25">
      <g>
       <use xlink:href="#m1e086684f9" x="283.784375" y="386.162187" style="stroke: #000000; stroke-width: 0.8"/>
      </g>
     </g>
     <g id="text_21">
      <!-- True -->
      <g transform="translate(273.167187 400.760625) scale(0.1 -0.1)">
       <use xlink:href="#DejaVuSans-54"/>
       <use xlink:href="#DejaVuSans-72" x="46.333984"/>
       <use xlink:href="#DejaVuSans-75" x="87.447266"/>
       <use xlink:href="#DejaVuSans-65" x="150.826172"/>
      </g>
     </g>
    </g>
    <g id="xtick_8">
     <g id="line2d_26">
      <g>
       <use xlink:href="#m1e086684f9" x="372.791875" y="386.162187" style="stroke: #000000; stroke-width: 0.8"/>
      </g>
     </g>
     <g id="text_22">
      <!-- False -->
      <g transform="translate(360.237969 400.760625) scale(0.1 -0.1)">
       <use xlink:href="#DejaVuSans-46"/>
       <use xlink:href="#DejaVuSans-61" x="48.394531"/>
       <use xlink:href="#DejaVuSans-6c" x="109.673828"/>
       <use xlink:href="#DejaVuSans-73" x="137.457031"/>
       <use xlink:href="#DejaVuSans-65" x="189.556641"/>
      </g>
     </g>
    </g>
    <g id="text_23">
     <!-- results -->
     <g transform="translate(311.54125 414.43875) scale(0.1 -0.1)">
      <use xlink:href="#DejaVuSans-72"/>
      <use xlink:href="#DejaVuSans-65" x="38.863281"/>
      <use xlink:href="#DejaVuSans-73" x="100.386719"/>
      <use xlink:href="#DejaVuSans-75" x="152.486328"/>
      <use xlink:href="#DejaVuSans-6c" x="215.865234"/>
      <use xlink:href="#DejaVuSans-74" x="243.648438"/>
      <use xlink:href="#DejaVuSans-73" x="282.857422"/>
     </g>
    </g>
   </g>
   <g id="matplotlib.axis_8">
    <g id="ytick_19">
     <g id="line2d_27">
      <g>
       <use xlink:href="#ma63835e2fa" x="239.280625" y="386.162187" style="stroke: #000000; stroke-width: 0.8"/>
      </g>
     </g>
    </g>
    <g id="ytick_20">
     <g id="line2d_28">
      <g>
       <use xlink:href="#ma63835e2fa" x="239.280625" y="358.218996" style="stroke: #000000; stroke-width: 0.8"/>
      </g>
     </g>
    </g>
    <g id="ytick_21">
     <g id="line2d_29">
      <g>
       <use xlink:href="#ma63835e2fa" x="239.280625" y="330.275805" style="stroke: #000000; stroke-width: 0.8"/>
      </g>
     </g>
    </g>
    <g id="ytick_22">
     <g id="line2d_30">
      <g>
       <use xlink:href="#ma63835e2fa" x="239.280625" y="302.332614" style="stroke: #000000; stroke-width: 0.8"/>
      </g>
     </g>
    </g>
    <g id="ytick_23">
     <g id="line2d_31">
      <g>
       <use xlink:href="#ma63835e2fa" x="239.280625" y="274.389422" style="stroke: #000000; stroke-width: 0.8"/>
      </g>
     </g>
    </g>
    <g id="ytick_24">
     <g id="line2d_32">
      <g>
       <use xlink:href="#ma63835e2fa" x="239.280625" y="246.446231" style="stroke: #000000; stroke-width: 0.8"/>
      </g>
     </g>
    </g>
   </g>
   <g id="patch_124">
    <path d="M 239.280625 386.162187 
L 239.280625 218.922187 
" style="fill: none; stroke: #000000; stroke-width: 0.8; stroke-linejoin: miter; stroke-linecap: square"/>
   </g>
   <g id="patch_125">
    <path d="M 239.280625 386.162187 
L 417.295625 386.162187 
" style="fill: none; stroke: #000000; stroke-width: 0.8; stroke-linejoin: miter; stroke-linecap: square"/>
   </g>
   <g id="text_24">
    <!-- score = Rosetta_sc | reverse = True -->
    <g transform="translate(239.019375 212.922187) scale(0.1 -0.1)">
     <use xlink:href="#DejaVuSans-73"/>
     <use xlink:href="#DejaVuSans-63" x="52.099609"/>
     <use xlink:href="#DejaVuSans-6f" x="107.080078"/>
     <use xlink:href="#DejaVuSans-72" x="168.261719"/>
     <use xlink:href="#DejaVuSans-65" x="207.125"/>
     <use xlink:href="#DejaVuSans-20" x="268.648438"/>
     <use xlink:href="#DejaVuSans-3d" x="300.435547"/>
     <use xlink:href="#DejaVuSans-20" x="384.224609"/>
     <use xlink:href="#DejaVuSans-52" x="416.011719"/>
     <use xlink:href="#DejaVuSans-6f" x="480.994141"/>
     <use xlink:href="#DejaVuSans-73" x="542.175781"/>
     <use xlink:href="#DejaVuSans-65" x="594.275391"/>
     <use xlink:href="#DejaVuSans-74" x="655.798828"/>
     <use xlink:href="#DejaVuSans-74" x="695.007812"/>
     <use xlink:href="#DejaVuSans-61" x="734.216797"/>
     <use xlink:href="#DejaVuSans-5f" x="795.496094"/>
     <use xlink:href="#DejaVuSans-73" x="845.496094"/>
     <use xlink:href="#DejaVuSans-63" x="897.595703"/>
     <use xlink:href="#DejaVuSans-20" x="952.576172"/>
     <use xlink:href="#DejaVuSans-7c" x="984.363281"/>
     <use xlink:href="#DejaVuSans-20" x="1018.054688"/>
     <use xlink:href="#DejaVuSans-72" x="1049.841797"/>
     <use xlink:href="#DejaVuSans-65" x="1088.705078"/>
     <use xlink:href="#DejaVuSans-76" x="1150.228516"/>
     <use xlink:href="#DejaVuSans-65" x="1209.408203"/>
     <use xlink:href="#DejaVuSans-72" x="1270.931641"/>
     <use xlink:href="#DejaVuSans-73" x="1312.044922"/>
     <use xlink:href="#DejaVuSans-65" x="1364.144531"/>
     <use xlink:href="#DejaVuSans-20" x="1425.667969"/>
     <use xlink:href="#DejaVuSans-3d" x="1457.455078"/>
     <use xlink:href="#DejaVuSans-20" x="1541.244141"/>
     <use xlink:href="#DejaVuSans-54" x="1573.03125"/>
     <use xlink:href="#DejaVuSans-72" x="1619.365234"/>
     <use xlink:href="#DejaVuSans-75" x="1660.478516"/>
     <use xlink:href="#DejaVuSans-65" x="1723.857422"/>
    </g>
   </g>
   <g id="legend_1">
    <g id="patch_126">
     <path d="M 431.706187 325.115937 
L 517.104625 325.115937 
Q 519.104625 325.115937 519.104625 323.115937 
L 519.104625 114.728437 
Q 519.104625 112.728437 517.104625 112.728437 
L 431.706187 112.728437 
Q 429.706187 112.728437 429.706187 114.728437 
L 429.706187 323.115937 
Q 429.706187 325.115937 431.706187 325.115937 
z
" style="fill: #ffffff; opacity: 0.8; stroke: #cccccc; stroke-linejoin: miter"/>
    </g>
    <g id="patch_127">
     <path d="M 433.706187 124.326875 
L 453.706187 124.326875 
L 453.706187 117.326875 
L 433.706187 117.326875 
z
" style="fill: #3274a1"/>
    </g>
    <g id="text_25">
     <!-- orient_1_2 -->
     <g transform="translate(461.706187 124.326875) scale(0.1 -0.1)">
      <defs>
       <path id="DejaVuSans-69" d="M 603 3500 
L 1178 3500 
L 1178 0 
L 603 0 
L 603 3500 
z
M 603 4863 
L 1178 4863 
L 1178 4134 
L 603 4134 
L 603 4863 
z
" transform="scale(0.015625)"/>
      </defs>
      <use xlink:href="#DejaVuSans-6f"/>
      <use xlink:href="#DejaVuSans-72" x="61.181641"/>
      <use xlink:href="#DejaVuSans-69" x="102.294922"/>
      <use xlink:href="#DejaVuSans-65" x="130.078125"/>
      <use xlink:href="#DejaVuSans-6e" x="191.601562"/>
      <use xlink:href="#DejaVuSans-74" x="254.980469"/>
      <use xlink:href="#DejaVuSans-5f" x="294.189453"/>
      <use xlink:href="#DejaVuSans-31" x="344.189453"/>
      <use xlink:href="#DejaVuSans-5f" x="407.8125"/>
      <use xlink:href="#DejaVuSans-32" x="457.8125"/>
     </g>
    </g>
    <g id="patch_128">
     <path d="M 433.706187 139.283125 
L 453.706187 139.283125 
L 453.706187 132.283125 
L 433.706187 132.283125 
z
" style="fill: #e1812c"/>
    </g>
    <g id="text_26">
     <!-- orient_1_3 -->
     <g transform="translate(461.706187 139.283125) scale(0.1 -0.1)">
      <defs>
       <path id="DejaVuSans-33" d="M 2597 2516 
Q 3050 2419 3304 2112 
Q 3559 1806 3559 1356 
Q 3559 666 3084 287 
Q 2609 -91 1734 -91 
Q 1441 -91 1130 -33 
Q 819 25 488 141 
L 488 750 
Q 750 597 1062 519 
Q 1375 441 1716 441 
Q 2309 441 2620 675 
Q 2931 909 2931 1356 
Q 2931 1769 2642 2001 
Q 2353 2234 1838 2234 
L 1294 2234 
L 1294 2753 
L 1863 2753 
Q 2328 2753 2575 2939 
Q 2822 3125 2822 3475 
Q 2822 3834 2567 4026 
Q 2313 4219 1838 4219 
Q 1578 4219 1281 4162 
Q 984 4106 628 3988 
L 628 4550 
Q 988 4650 1302 4700 
Q 1616 4750 1894 4750 
Q 2613 4750 3031 4423 
Q 3450 4097 3450 3541 
Q 3450 3153 3228 2886 
Q 3006 2619 2597 2516 
z
" transform="scale(0.015625)"/>
      </defs>
      <use xlink:href="#DejaVuSans-6f"/>
      <use xlink:href="#DejaVuSans-72" x="61.181641"/>
      <use xlink:href="#DejaVuSans-69" x="102.294922"/>
      <use xlink:href="#DejaVuSans-65" x="130.078125"/>
      <use xlink:href="#DejaVuSans-6e" x="191.601562"/>
      <use xlink:href="#DejaVuSans-74" x="254.980469"/>
      <use xlink:href="#DejaVuSans-5f" x="294.189453"/>
      <use xlink:href="#DejaVuSans-31" x="344.189453"/>
      <use xlink:href="#DejaVuSans-5f" x="407.8125"/>
      <use xlink:href="#DejaVuSans-33" x="457.8125"/>
     </g>
    </g>
    <g id="patch_129">
     <path d="M 433.706187 154.239375 
L 453.706187 154.239375 
L 453.706187 147.239375 
L 433.706187 147.239375 
z
" style="fill: #3a923a"/>
    </g>
    <g id="text_27">
     <!-- orient_1_4 -->
     <g transform="translate(461.706187 154.239375) scale(0.1 -0.1)">
      <use xlink:href="#DejaVuSans-6f"/>
      <use xlink:href="#DejaVuSans-72" x="61.181641"/>
      <use xlink:href="#DejaVuSans-69" x="102.294922"/>
      <use xlink:href="#DejaVuSans-65" x="130.078125"/>
      <use xlink:href="#DejaVuSans-6e" x="191.601562"/>
      <use xlink:href="#DejaVuSans-74" x="254.980469"/>
      <use xlink:href="#DejaVuSans-5f" x="294.189453"/>
      <use xlink:href="#DejaVuSans-31" x="344.189453"/>
      <use xlink:href="#DejaVuSans-5f" x="407.8125"/>
      <use xlink:href="#DejaVuSans-34" x="457.8125"/>
     </g>
    </g>
    <g id="patch_130">
     <path d="M 433.706187 169.195625 
L 453.706187 169.195625 
L 453.706187 162.195625 
L 433.706187 162.195625 
z
" style="fill: #c03d3e"/>
    </g>
    <g id="text_28">
     <!-- spac_m1 -->
     <g transform="translate(461.706187 169.195625) scale(0.1 -0.1)">
      <defs>
       <path id="DejaVuSans-70" d="M 1159 525 
L 1159 -1331 
L 581 -1331 
L 581 3500 
L 1159 3500 
L 1159 2969 
Q 1341 3281 1617 3432 
Q 1894 3584 2278 3584 
Q 2916 3584 3314 3078 
Q 3713 2572 3713 1747 
Q 3713 922 3314 415 
Q 2916 -91 2278 -91 
Q 1894 -91 1617 61 
Q 1341 213 1159 525 
z
M 3116 1747 
Q 3116 2381 2855 2742 
Q 2594 3103 2138 3103 
Q 1681 3103 1420 2742 
Q 1159 2381 1159 1747 
Q 1159 1113 1420 752 
Q 1681 391 2138 391 
Q 2594 391 2855 752 
Q 3116 1113 3116 1747 
z
" transform="scale(0.015625)"/>
       <path id="DejaVuSans-6d" d="M 3328 2828 
Q 3544 3216 3844 3400 
Q 4144 3584 4550 3584 
Q 5097 3584 5394 3201 
Q 5691 2819 5691 2113 
L 5691 0 
L 5113 0 
L 5113 2094 
Q 5113 2597 4934 2840 
Q 4756 3084 4391 3084 
Q 3944 3084 3684 2787 
Q 3425 2491 3425 1978 
L 3425 0 
L 2847 0 
L 2847 2094 
Q 2847 2600 2669 2842 
Q 2491 3084 2119 3084 
Q 1678 3084 1418 2786 
Q 1159 2488 1159 1978 
L 1159 0 
L 581 0 
L 581 3500 
L 1159 3500 
L 1159 2956 
Q 1356 3278 1631 3431 
Q 1906 3584 2284 3584 
Q 2666 3584 2933 3390 
Q 3200 3197 3328 2828 
z
" transform="scale(0.015625)"/>
      </defs>
      <use xlink:href="#DejaVuSans-73"/>
      <use xlink:href="#DejaVuSans-70" x="52.099609"/>
      <use xlink:href="#DejaVuSans-61" x="115.576172"/>
      <use xlink:href="#DejaVuSans-63" x="176.855469"/>
      <use xlink:href="#DejaVuSans-5f" x="231.835938"/>
      <use xlink:href="#DejaVuSans-6d" x="281.835938"/>
      <use xlink:href="#DejaVuSans-31" x="379.248047"/>
     </g>
    </g>
    <g id="patch_131">
     <path d="M 433.706187 184.151875 
L 453.706187 184.151875 
L 453.706187 177.151875 
L 433.706187 177.151875 
z
" style="fill: #9372b2"/>
    </g>
    <g id="text_29">
     <!-- spac_m2 -->
     <g transform="translate(461.706187 184.151875) scale(0.1 -0.1)">
      <use xlink:href="#DejaVuSans-73"/>
      <use xlink:href="#DejaVuSans-70" x="52.099609"/>
      <use xlink:href="#DejaVuSans-61" x="115.576172"/>
      <use xlink:href="#DejaVuSans-63" x="176.855469"/>
      <use xlink:href="#DejaVuSans-5f" x="231.835938"/>
      <use xlink:href="#DejaVuSans-6d" x="281.835938"/>
      <use xlink:href="#DejaVuSans-32" x="379.248047"/>
     </g>
    </g>
    <g id="patch_132">
     <path d="M 433.706187 199.108125 
L 453.706187 199.108125 
L 453.706187 192.108125 
L 433.706187 192.108125 
z
" style="fill: #845b53"/>
    </g>
    <g id="text_30">
     <!-- spac_p1 -->
     <g transform="translate(461.706187 199.108125) scale(0.1 -0.1)">
      <use xlink:href="#DejaVuSans-73"/>
      <use xlink:href="#DejaVuSans-70" x="52.099609"/>
      <use xlink:href="#DejaVuSans-61" x="115.576172"/>
      <use xlink:href="#DejaVuSans-63" x="176.855469"/>
      <use xlink:href="#DejaVuSans-5f" x="231.835938"/>
      <use xlink:href="#DejaVuSans-70" x="281.835938"/>
      <use xlink:href="#DejaVuSans-31" x="345.3125"/>
     </g>
    </g>
    <g id="patch_133">
     <path d="M 433.706187 214.064375 
L 453.706187 214.064375 
L 453.706187 207.064375 
L 433.706187 207.064375 
z
" style="fill: #d684bd"/>
    </g>
    <g id="text_31">
     <!-- spac_p2 -->
     <g transform="translate(461.706187 214.064375) scale(0.1 -0.1)">
      <use xlink:href="#DejaVuSans-73"/>
      <use xlink:href="#DejaVuSans-70" x="52.099609"/>
      <use xlink:href="#DejaVuSans-61" x="115.576172"/>
      <use xlink:href="#DejaVuSans-63" x="176.855469"/>
      <use xlink:href="#DejaVuSans-5f" x="231.835938"/>
      <use xlink:href="#DejaVuSans-70" x="281.835938"/>
      <use xlink:href="#DejaVuSans-32" x="345.3125"/>
     </g>
    </g>
    <g id="patch_134">
     <path d="M 433.706187 229.020625 
L 453.706187 229.020625 
L 453.706187 222.020625 
L 433.706187 222.020625 
z
" style="fill: #7f7f7f"/>
    </g>
    <g id="text_32">
     <!-- orient_2_1 -->
     <g transform="translate(461.706187 229.020625) scale(0.1 -0.1)">
      <use xlink:href="#DejaVuSans-6f"/>
      <use xlink:href="#DejaVuSans-72" x="61.181641"/>
      <use xlink:href="#DejaVuSans-69" x="102.294922"/>
      <use xlink:href="#DejaVuSans-65" x="130.078125"/>
      <use xlink:href="#DejaVuSans-6e" x="191.601562"/>
      <use xlink:href="#DejaVuSans-74" x="254.980469"/>
      <use xlink:href="#DejaVuSans-5f" x="294.189453"/>
      <use xlink:href="#DejaVuSans-32" x="344.189453"/>
      <use xlink:href="#DejaVuSans-5f" x="407.8125"/>
      <use xlink:href="#DejaVuSans-31" x="457.8125"/>
     </g>
    </g>
    <g id="patch_135">
     <path d="M 433.706187 243.976875 
L 453.706187 243.976875 
L 453.706187 236.976875 
L 433.706187 236.976875 
z
" style="fill: #a9aa35"/>
    </g>
    <g id="text_33">
     <!-- orient_3_1 -->
     <g transform="translate(461.706187 243.976875) scale(0.1 -0.1)">
      <use xlink:href="#DejaVuSans-6f"/>
      <use xlink:href="#DejaVuSans-72" x="61.181641"/>
      <use xlink:href="#DejaVuSans-69" x="102.294922"/>
      <use xlink:href="#DejaVuSans-65" x="130.078125"/>
      <use xlink:href="#DejaVuSans-6e" x="191.601562"/>
      <use xlink:href="#DejaVuSans-74" x="254.980469"/>
      <use xlink:href="#DejaVuSans-5f" x="294.189453"/>
      <use xlink:href="#DejaVuSans-33" x="344.189453"/>
      <use xlink:href="#DejaVuSans-5f" x="407.8125"/>
      <use xlink:href="#DejaVuSans-31" x="457.8125"/>
     </g>
    </g>
    <g id="patch_136">
     <path d="M 433.706187 258.933125 
L 453.706187 258.933125 
L 453.706187 251.933125 
L 433.706187 251.933125 
z
" style="fill: #2eabb8"/>
    </g>
    <g id="text_34">
     <!-- orient_4_1 -->
     <g transform="translate(461.706187 258.933125) scale(0.1 -0.1)">
      <use xlink:href="#DejaVuSans-6f"/>
      <use xlink:href="#DejaVuSans-72" x="61.181641"/>
      <use xlink:href="#DejaVuSans-69" x="102.294922"/>
      <use xlink:href="#DejaVuSans-65" x="130.078125"/>
      <use xlink:href="#DejaVuSans-6e" x="191.601562"/>
      <use xlink:href="#DejaVuSans-74" x="254.980469"/>
      <use xlink:href="#DejaVuSans-5f" x="294.189453"/>
      <use xlink:href="#DejaVuSans-34" x="344.189453"/>
      <use xlink:href="#DejaVuSans-5f" x="407.8125"/>
      <use xlink:href="#DejaVuSans-31" x="457.8125"/>
     </g>
    </g>
    <g id="patch_137">
     <path d="M 433.706187 273.889375 
L 453.706187 273.889375 
L 453.706187 266.889375 
L 433.706187 266.889375 
z
" style="fill: #3274a1"/>
    </g>
    <g id="text_35">
     <!-- spac_m1_r -->
     <g transform="translate(461.706187 273.889375) scale(0.1 -0.1)">
      <use xlink:href="#DejaVuSans-73"/>
      <use xlink:href="#DejaVuSans-70" x="52.099609"/>
      <use xlink:href="#DejaVuSans-61" x="115.576172"/>
      <use xlink:href="#DejaVuSans-63" x="176.855469"/>
      <use xlink:href="#DejaVuSans-5f" x="231.835938"/>
      <use xlink:href="#DejaVuSans-6d" x="281.835938"/>
      <use xlink:href="#DejaVuSans-31" x="379.248047"/>
      <use xlink:href="#DejaVuSans-5f" x="442.871094"/>
      <use xlink:href="#DejaVuSans-72" x="492.871094"/>
     </g>
    </g>
    <g id="patch_138">
     <path d="M 433.706187 288.845625 
L 453.706187 288.845625 
L 453.706187 281.845625 
L 433.706187 281.845625 
z
" style="fill: #e1812c"/>
    </g>
    <g id="text_36">
     <!-- spac_m2_r -->
     <g transform="translate(461.706187 288.845625) scale(0.1 -0.1)">
      <use xlink:href="#DejaVuSans-73"/>
      <use xlink:href="#DejaVuSans-70" x="52.099609"/>
      <use xlink:href="#DejaVuSans-61" x="115.576172"/>
      <use xlink:href="#DejaVuSans-63" x="176.855469"/>
      <use xlink:href="#DejaVuSans-5f" x="231.835938"/>
      <use xlink:href="#DejaVuSans-6d" x="281.835938"/>
      <use xlink:href="#DejaVuSans-32" x="379.248047"/>
      <use xlink:href="#DejaVuSans-5f" x="442.871094"/>
      <use xlink:href="#DejaVuSans-72" x="492.871094"/>
     </g>
    </g>
    <g id="patch_139">
     <path d="M 433.706187 303.801875 
L 453.706187 303.801875 
L 453.706187 296.801875 
L 433.706187 296.801875 
z
" style="fill: #3a923a"/>
    </g>
    <g id="text_37">
     <!-- spac_p1_r -->
     <g transform="translate(461.706187 303.801875) scale(0.1 -0.1)">
      <use xlink:href="#DejaVuSans-73"/>
      <use xlink:href="#DejaVuSans-70" x="52.099609"/>
      <use xlink:href="#DejaVuSans-61" x="115.576172"/>
      <use xlink:href="#DejaVuSans-63" x="176.855469"/>
      <use xlink:href="#DejaVuSans-5f" x="231.835938"/>
      <use xlink:href="#DejaVuSans-70" x="281.835938"/>
      <use xlink:href="#DejaVuSans-31" x="345.3125"/>
      <use xlink:href="#DejaVuSans-5f" x="408.935547"/>
      <use xlink:href="#DejaVuSans-72" x="458.935547"/>
     </g>
    </g>
    <g id="patch_140">
     <path d="M 433.706187 318.758125 
L 453.706187 318.758125 
L 453.706187 311.758125 
L 433.706187 311.758125 
z
" style="fill: #c03d3e"/>
    </g>
    <g id="text_38">
     <!-- spac_p2_r -->
     <g transform="translate(461.706187 318.758125) scale(0.1 -0.1)">
      <use xlink:href="#DejaVuSans-73"/>
      <use xlink:href="#DejaVuSans-70" x="52.099609"/>
      <use xlink:href="#DejaVuSans-61" x="115.576172"/>
      <use xlink:href="#DejaVuSans-63" x="176.855469"/>
      <use xlink:href="#DejaVuSans-5f" x="231.835938"/>
      <use xlink:href="#DejaVuSans-70" x="281.835938"/>
      <use xlink:href="#DejaVuSans-32" x="345.3125"/>
      <use xlink:href="#DejaVuSans-5f" x="408.935547"/>
      <use xlink:href="#DejaVuSans-72" x="458.935547"/>
     </g>
    </g>
   </g>
  </g>
 </g>
 <defs>
  <clipPath id="pec67f2d820">
   <rect x="46.965625" y="20.842187" width="178.015" height="167.24"/>
  </clipPath>
  <clipPath id="p5637cb97c9">
   <rect x="239.280625" y="20.842187" width="178.015" height="167.24"/>
  </clipPath>
  <clipPath id="p0978aac27f">
   <rect x="46.965625" y="218.922187" width="178.015" height="167.24"/>
  </clipPath>
  <clipPath id="pee4101ddbc">
   <rect x="239.280625" y="218.922187" width="178.015" height="167.24"/>
  </clipPath>
 </defs>
</svg>
